<svg width="445" height="354" viewBox="0 0 445 354" fill="none" xmlns="http://www.w3.org/2000/svg">
<path d="M31.277 353.731C13.7692 353.731 0 340.965 0 322.272C0 303.579 13.7692 290.813 31.277 290.813C42.037 290.813 49.5143 295.919 54.3471 302.849L48.0553 306.406C44.5902 301.208 38.2071 297.561 31.277 297.561C17.9637 297.561 7.84204 307.682 7.84204 322.272C7.84204 336.68 17.9637 346.984 31.277 346.984C38.2071 346.984 44.5902 343.245 48.0553 338.139L54.4383 341.604C49.3319 348.625 42.037 353.731 31.277 353.731Z" fill="white"/>
<path d="M100.012 352.637H93.1726V347.622C89.6164 351.634 84.5099 353.731 78.5828 353.731C71.1967 353.731 63.2635 348.716 63.2635 339.142C63.2635 329.202 71.1055 324.643 78.5828 324.643C84.6011 324.643 89.6164 326.558 93.1726 330.57V322.637C93.1726 316.801 88.4309 313.427 82.0479 313.427C76.7591 313.427 72.4733 315.251 68.5523 319.536L65.3608 314.795C70.1025 309.871 75.756 307.5 82.9598 307.5C92.352 307.5 100.012 311.694 100.012 322.363V352.637ZM81.136 348.807C85.8777 348.807 90.5282 346.984 93.1726 343.336V334.947C90.5282 331.391 85.8777 329.567 81.136 329.567C74.6618 329.567 70.1936 333.579 70.1936 339.142C70.1936 344.795 74.6618 348.807 81.136 348.807Z" fill="white"/>
<path d="M122.473 352.637H115.634V291.816H122.473V352.637Z" fill="white"/>
<path d="M157.909 353.731C144.778 353.731 135.386 344.339 135.386 330.57C135.386 317.804 144.504 307.5 157.088 307.5C170.401 307.5 178.243 317.895 178.243 331.117V332.85H142.68C143.228 341.148 148.972 348.078 158.456 348.078C163.562 348.078 168.577 346.072 172.134 342.424L175.416 346.892C170.948 351.269 165.021 353.731 157.909 353.731ZM171.495 327.743C171.404 321.269 167.027 313.153 156.997 313.153C147.605 313.153 142.954 321.087 142.589 327.743H171.495Z" fill="white"/>
<path d="M197.983 352.637H191.144V308.594H197.983V315.615C201.539 311.056 206.646 307.591 212.664 307.591V314.612C211.843 314.521 211.023 314.43 210.02 314.43C205.734 314.43 199.989 317.895 197.983 321.451V352.637Z" fill="white"/>
<path d="M226.531 302.302C223.978 302.302 221.881 300.296 221.881 297.743C221.881 295.19 223.978 293.092 226.531 293.092C229.085 293.092 231.091 295.19 231.091 297.743C231.091 300.296 229.085 302.302 226.531 302.302ZM229.905 352.637H223.066V308.594H229.905V352.637Z" fill="white"/>
<path d="M265.341 353.731C252.21 353.731 242.818 344.339 242.818 330.57C242.818 317.804 251.937 307.5 264.521 307.5C277.834 307.5 285.676 317.895 285.676 331.117V332.85H250.113C250.66 341.148 256.405 348.078 265.888 348.078C270.995 348.078 276.01 346.072 279.566 342.424L282.849 346.892C278.381 351.269 272.454 353.731 265.341 353.731ZM278.928 327.743C278.837 321.269 274.46 313.153 264.429 313.153C255.037 313.153 250.387 321.087 250.022 327.743H278.928Z" fill="white"/>
<path d="M335.963 352.637H297.209V291.816H310.248V341.239H335.963V352.637Z" fill="white"/>
<path d="M351.98 303.852C348.241 303.852 345.141 300.752 345.141 296.922C345.141 293.092 348.241 290.083 351.98 290.083C355.81 290.083 358.91 293.092 358.91 296.922C358.91 300.752 355.81 303.852 351.98 303.852ZM357.816 352.637H346.235V308.594H357.816V352.637Z" fill="white"/>
<path d="M385.348 352.637H373.767V318.716H366.472V308.594H373.767V306.77C373.767 296.831 379.694 290.904 388.539 290.904C392.825 290.904 397.384 292.089 400.029 295.099L395.652 302.12C394.466 301.026 392.916 300.387 390.819 300.387C387.536 300.387 385.348 302.485 385.348 306.77V308.594H394.284V318.716H385.348V352.637Z" fill="white"/>
<path d="M423.477 353.731C410.073 353.731 399.951 344.704 399.951 330.57C399.951 317.804 409.434 307.5 422.748 307.5C435.97 307.5 444.815 317.348 444.815 331.664V334.4H412.079C412.9 339.78 417.276 344.248 424.754 344.248C428.492 344.248 433.599 342.698 436.426 339.962L441.623 347.622C437.246 351.634 430.316 353.731 423.477 353.731ZM433.69 326.375C433.325 322.181 430.407 316.983 422.748 316.983C415.544 316.983 412.444 321.999 411.988 326.375H433.69Z" fill="white"/>
<path d="M407.35 0C407.35 53.9716 385.909 105.733 347.746 143.896C309.582 182.06 257.821 203.5 203.85 203.5C149.878 203.5 98.1171 182.06 59.9534 143.896C21.7897 105.733 0.349618 53.9716 0.349609 3.05176e-05L70.3536 1.52588e-05C70.3536 35.4054 84.4183 69.3606 109.454 94.3959C134.489 119.431 168.444 133.496 203.85 133.496C239.255 133.496 273.21 119.431 298.246 94.3959C323.281 69.3606 337.346 35.4053 337.346 0H407.35Z" fill="white"/>
<path fill-rule="evenodd" clip-rule="evenodd" d="M347.746 143.896C357.804 133.838 366.701 122.835 374.35 111.096V180H444.35V70V0H407.35H374.35H337.346H264.35V70H317.521C312.112 78.785 305.66 86.9816 298.246 94.3959C273.21 119.431 239.255 133.496 203.85 133.496C168.444 133.496 134.489 119.431 109.454 94.3959C84.4183 69.3606 70.3536 35.4054 70.3536 0L0.349609 3.05176e-05C0.349625 53.9716 21.7897 105.733 59.9534 143.896C98.1171 182.06 149.878 203.5 203.85 203.5C257.821 203.5 309.582 182.06 347.746 143.896Z" fill="white"/>
</svg>
